<svg xmlns="http://www.w3.org/2000/svg" version="1.1" xmlns:xlink="http://www.w3.org/1999/xlink" xmlns:svgjs="http://svgjs.dev/svgjs" width="1500" height="1500" viewBox="0 0 1500 1500"><rect width="1500" height="1500" fill="#ffffff"></rect><g transform="matrix(0.6666666666666666,0,0,0.6666666666666666,250,246.5488978730798)"><svg viewBox="0 0 280 281" data-background-color="#ffffff" preserveAspectRatio="xMidYMid meet" height="1505" width="1500" xmlns="http://www.w3.org/2000/svg" xmlns:xlink="http://www.w3.org/1999/xlink"><g id="tight-bounds" transform="matrix(1,0,0,1,0,0.5002395039886665)"><svg viewBox="0 0 280 280" height="280" width="280"><g><svg viewBox="0 0 280 280" height="280" width="280"><g><svg viewBox="0 0 280 280" height="280" width="280"><g id="textblocktransform"><svg viewBox="0 0 280 280" height="280" width="280" id="textblock"><g><svg viewBox="0 0 280 280" height="280" width="280"><g transform="matrix(1,0,0,1,74.03047185620946,74.00336708925556)"><svg viewBox="0 0 131.93905628758108 131.99326582148888" height="131.99326582148888" width="131.93905628758108"><g id="icon-0"><svg xmlns="http://www.w3.org/2000/svg" data-name="Layer 1" viewBox="1.9914483139484456 1.9792198461133816 60.008551686051554 60.03320727863281" x="0" y="0" height="131.99326582148888" width="131.93905628758108" class="icon-jxe-0" data-fill-palette-color="accent" id="jxe-0"><path class="cls-1" d="M61 31H31A1 1 0 0 0 30 32V61A1 1 0 0 0 31 62H61A1 1 0 0 0 62 61V32A1 1 0 0 0 61 31ZM60 36.5A1.5 1.5 0 0 1 57 36.5V33H60ZM55 36.5A1.5 1.5 0 0 1 52 36.5V33H55ZM50 36.5A1.5 1.5 0 0 1 47 36.5V33H50ZM45 36.5A1.5 1.5 0 0 1 42 36.5V33H45ZM40 36.5A1.5 1.5 0 0 1 37 36.5V33H40ZM32 33H35V36.5A1.5 1.5 0 0 1 32 36.5ZM36 60V50H42V60ZM44 60V49A1 1 0 0 0 43 48H35A1 1 0 0 0 34 49V60H32V39.649A3.45 3.45 0 0 0 36 38.942 3.483 3.483 0 0 0 41 38.942 3.483 3.483 0 0 0 46 38.942 3.483 3.483 0 0 0 51 38.942 3.483 3.483 0 0 0 56 38.942 3.45 3.45 0 0 0 60 39.649V60Z" stroke="#4a596d" stroke-miterlimit="10" fill="#000000" data-fill-palette-color="accent"></path><path class="cls-1" d="M20.1 55A1 1 0 0 0 21.065 54.259L23.749 44.259V44.252L24.6 41H28V39H23.826A1 1 0 0 0 22.858 39.748L22.01 43H4A1 1 0 0 0 3.034 44.259L5.717 54.259A1 1 0 0 0 6.683 55H8.5V56.184A3 3 0 1 0 10.5 56.184V55H16.5V56.184A3 3 0 1 0 18.5 56.184V55ZM9.5 60A1 1 0 1 1 10.5 59 1 1 0 0 1 9.5 60ZM17.5 60A1 1 0 1 1 18.5 59 1 1 0 0 1 17.5 60ZM5.3 45H21.479L19.333 53H7.45Z" stroke="#4a596d" stroke-miterlimit="10" fill="#000000" data-fill-palette-color="accent"></path><path class="cls-1" d="M55 12H49.941A9 9 0 0 0 32.059 12H23.949A11 11 0 1 0 7.465 22.49C7.477 22.498 7.486 22.509 7.499 22.517S7.532 22.532 7.548 22.541A11 11 0 0 0 10.056 23.588C10.138 23.611 10.221 23.631 10.304 23.652Q10.826 23.784 11.367 23.865C11.467 23.881 11.567 23.899 11.673 23.912A10 10 0 0 0 14.327 23.912C14.427 23.899 14.527 23.881 14.633 23.865Q15.175 23.784 15.696 23.652C15.779 23.631 15.862 23.611 15.944 23.588A11 11 0 0 0 18.452 22.541C18.468 22.532 18.485 22.526 18.501 22.517S18.523 22.498 18.535 22.49A11 11 0 0 0 23.949 14H32.059A9 9 0 0 0 49.941 14H54V25.586L51.707 23.293 50.293 24.707 54.293 28.707A1 1 0 0 0 55.707 28.707L59.707 24.707 58.293 23.293 56 25.586V13A1 1 0 0 0 55 12ZM13 14A3 3 0 1 1 16 11 3 3 0 0 1 13 14ZM12.144 16H13.856A3.147 3.147 0 0 1 17 19.144V21.05L16.93 21.084A9 9 0 0 1 16.084 21.444L16.012 21.47A9.1 9.1 0 0 1 9.988 21.47L9.916 21.444A9 9 0 0 1 9.07 21.084L9 21.05V19.144A3.147 3.147 0 0 1 12.144 16ZM19 19.689V19.144A5.13 5.13 0 0 0 16.359 14.678 5 5 0 1 0 9.641 14.678 5.13 5.13 0 0 0 7 19.144V19.689A9 9 0 1 1 19 19.689ZM34 13A7 7 0 0 1 40 6.08V8.039A3.21 3.21 0 0 0 37.749 11.076C37.749 13.334 39.529 13.876 40.707 14.239 42.02 14.639 42.251 14.828 42.251 15.493A1.252 1.252 0 0 1 39.751 15.493H37.751A3.21 3.21 0 0 0 40 18.53V19.92A7 7 0 0 1 34 13ZM42 19.92V18.53A3.21 3.21 0 0 0 44.251 15.493C44.251 13.231 42.47 12.687 41.291 12.326 39.979 11.926 39.749 11.738 39.749 11.076A1.252 1.252 0 0 1 42.249 11.076H44.249A3.21 3.21 0 0 0 42 8.039V6.08A6.991 6.991 0 0 1 42 19.92Z" stroke="#4a596d" stroke-miterlimit="10" fill="#000000" data-fill-palette-color="accent"></path><path class="cls-1" d="M14 41V29.414L16.293 31.707 17.707 30.293 13.707 26.293A1 1 0 0 0 12.293 26.293L8.293 30.293 9.707 31.707 12 29.414V41Z" stroke="#4a596d" stroke-miterlimit="10" fill="#000000" data-fill-palette-color="accent"></path><path class="cls-1" d="M57 42H47A1 1 0 0 0 46 43V50A1 1 0 0 0 47 51H57A1 1 0 0 0 58 50V43A1 1 0 0 0 57 42ZM56 49H48V44H56Z" stroke="#4a596d" stroke-miterlimit="10" fill="#000000" data-fill-palette-color="accent"></path></svg></g></svg></g><g id="text-0"><path d="M26.681 99.118v0c0.392-1.165 0.441-2.431 0.147-3.799v0l-4.424-1.259c-0.495 0.674-1.019 1.523-1.574 2.547v0l-0.82-0.407c0.271-0.633 0.457-1.1 0.558-1.399v0c0.63-1.875 0.699-3.739 0.207-5.593v0l0.87-0.164c0.19 0.426 0.402 0.831 0.635 1.214v0c3.564 1.619 6.522 2.885 8.874 3.799v0l-0.285 0.849c-1.083-0.118-2.023-0.072-2.819 0.14v0c0.857 2.042 1.273 3.95 1.249 5.724v0c-0.884 2.63-2.41 4.41-4.578 5.34-2.174 0.928-4.677 0.916-7.509-0.036-2.832-0.952-5.202-2.727-7.111-5.326-1.9-2.603-2.783-5.407-2.649-8.412v0c0.665-1.979 1.624-4.149 2.874-6.511v0l0.872 0.348c-0.173 0.514-0.243 1.034-0.209 1.56v0c1.051 0.926 2.389 1.752 4.014 2.479v0l-0.342 1.016c-0.99-0.094-1.973-0.305-2.95-0.633v0c-0.869 0.86-1.54 1.993-2.012 3.399-0.475 1.413-0.487 2.709-0.037 3.89v0c1.616 1.746 3.774 3.073 6.476 3.981 2.695 0.906 4.945 1.217 6.751 0.934 1.799-0.286 3.063-1.513 3.792-3.681z" fill="#000000" data-fill-palette-color="primary"></path><path d="M43.842 70.57l-0.888-0.67c-1.42-1.072-3.805-2.317-7.157-3.737-3.357-1.424-6.686-2.702-9.988-3.834v0l-0.072 0.165 5.727 5.665c2.349 2.349 4.573 4.316 6.672 5.901v0c1.283 0.968 2.443 1.216 3.48 0.742v0l0.478 0.58c-0.632 0.598-1.366 1.451-2.202 2.559-0.836 1.107-1.662 2.39-2.478 3.847v0l-0.993-0.53c0.335-0.969 0.704-1.839 1.106-2.612v0l-13.222-14.974c-1.101 1.036-1.946 1.78-2.535 2.23v0l-0.815-0.783c1.493-1.454 2.77-2.883 3.829-4.287 1.059-1.403 1.803-2.554 2.231-3.452v0l0.634 0.375c-0.304 0.734-0.273 1.24 0.094 1.516v0c0.499 0.377 3.932 1.858 10.301 4.445v0l3.136 1.18 0.115-0.288c-0.592-0.447-3.53-4.295-8.815-11.545v0c-0.389-0.294-0.895-0.194-1.517 0.301v0l-0.534-0.507c0.746-0.658 1.658-1.7 2.733-3.125 1.076-1.425 2.1-3.044 3.072-4.858v0l0.977 0.57c-0.309 0.739-0.734 1.657-1.277 2.753v0c0.499 0.48 1.28 1.121 2.343 1.923 1.063 0.803 3.351 2.297 6.864 4.484 3.513 2.186 5.981 3.619 7.404 4.298v0c0.747-0.761 1.562-1.51 2.445-2.247v0l0.774 0.752c-1.057 1.07-2.131 2.328-3.224 3.775-1.096 1.453-1.993 2.828-2.689 4.128v0l-0.993-0.531c0.341-0.93 0.78-1.872 1.319-2.825v0c-5.442-3.996-10.799-7.467-16.071-10.412v0l-0.08 0.106c5.171 7.594 8.724 12.246 10.659 13.957v0c-0.205 0.602-0.337 1.381-0.394 2.335-0.062 0.96-0.018 1.768 0.132 2.424v0z" fill="#000000" data-fill-palette-color="primary"></path><path d="M65.622 44.241c1.378-0.342 2.586-0.896 3.626-1.663 1.034-0.762 1.685-1.614 1.955-2.556 0.26-0.943 0.06-1.862-0.601-2.757v0c-0.681-0.923-2.824-1.104-6.43-0.544v0c-1.36 0.227-2.717 0.28-4.069 0.159-1.356-0.126-2.297-0.546-2.823-1.258v0c-0.901-1.221-1.164-2.931-0.787-5.129 0.37-2.194 1.074-4.01 2.112-5.45v0c1.702-1.256 3.373-2.219 5.011-2.89v0l0.459 0.622c-0.254 1.681 0.181 3.404 1.304 5.17v0l-0.862 0.636c-0.477-0.647-1.13-1.411-1.96-2.293v0c-1.075 0.221-2.073 0.672-2.996 1.353-0.923 0.681-1.54 1.447-1.85 2.299-0.316 0.856-0.192 1.665 0.37 2.428v0c0.391 0.531 1.224 0.804 2.499 0.82 1.279 0.021 2.579-0.085 3.901-0.318 1.326-0.227 2.661-0.286 4.005-0.176 1.344 0.11 2.279 0.521 2.804 1.234v0c1.019 1.382 1.424 3.208 1.214 5.48-0.21 2.272-0.847 4.226-1.91 5.864v0c-1.454 1.072-2.942 1.901-4.464 2.486v0c-0.248 0.439-0.431 0.984-0.549 1.634v0l-0.952 0.011c0.252-2.354-0.317-4.618-1.707-6.793v0l0.862-0.636c0.595 0.807 1.208 1.563 1.838 2.267z" fill="#000000" data-fill-palette-color="primary"></path><path d="M95.569 9.366v0c-1.111-0.089-2.093 0.033-2.943 0.365-0.857 0.335-1.412 0.614-1.663 0.839v0c0.351 1.522 1.335 4.349 2.95 8.481 1.615 4.132 3.001 7.244 4.158 9.336v0c1.249-0.333 2.434-0.564 3.556-0.693v0l0.265 1.046c-1.454 0.355-3.083 0.884-4.887 1.59-1.797 0.703-3.333 1.424-4.607 2.165v0l-0.568-0.972c0.468-0.367 1.308-0.928 2.518-1.681v0c-0.507-2.014-1.448-4.78-2.824-8.298v0l-0.731-1.871c-0.73-1.868-1.899-4.423-3.505-7.667v0c-0.337 0.006-0.905 0.166-1.705 0.478-0.8 0.313-1.577 0.834-2.331 1.564v0c0.054 0.93 0.296 2.107 0.728 3.531v0l-1.036 0.405c-0.853-2.181-1.875-3.732-3.068-4.652v0l-0.065-0.76c2.158-0.534 5.089-1.525 8.793-2.972 3.704-1.448 6.633-2.762 8.789-3.944v0l0.536 0.664c-0.379 1.011-0.548 1.918-0.507 2.72 0.032 0.799 0.256 1.806 0.672 3.023v0l-0.997 0.39c-0.528-0.804-1.037-1.833-1.528-3.087z" fill="#000000" data-fill-palette-color="primary"></path><path d="M127.4 23.379c-2.815 0.347-5.198-0.258-7.148-1.817-1.951-1.565-3.11-3.837-3.478-6.816-0.368-2.986 0.196-5.896 1.694-8.731 1.49-2.841 3.655-4.811 6.496-5.909v0c2.924-0.361 5.256 0.196 6.995 1.67 1.739 1.474 2.798 3.745 3.176 6.812 0.379 3.067-0.112 5.937-1.471 8.61-1.358 2.68-3.446 4.74-6.264 6.181zM124.129 2.846v0c-1.275 0.157-2.339 0.648-3.192 1.473v0c-0.92 2.134-1.194 4.708-0.822 7.721v0c0.427 3.463 1.723 5.998 3.887 7.606v0c1.145 0.869 2.413 1.218 3.803 1.047 1.391-0.172 2.466-0.681 3.227-1.53v0c0.894-2.124 1.163-4.621 0.809-7.49-0.354-2.87-1.152-5.128-2.393-6.774-1.242-1.653-3.015-2.337-5.319-2.053z" fill="#000000" data-fill-palette-color="primary"></path><path d="M154.666 1.361l0.142-0.853 9.794 1.334c2.54 0.425 4.381 1.119 5.522 2.082 1.149 0.958 1.558 2.426 1.228 4.404v0c-0.226 1.355-0.843 2.484-1.852 3.388-1.008 0.904-2.231 1.497-3.67 1.779v0l3.114 10.485c0.934 0.33 1.805 0.681 2.613 1.053v0l-0.363 1.109c-1.153-0.395-2.467-0.715-3.944-0.962-1.484-0.248-2.661-0.372-3.531-0.371v0l-0.059-0.71c0.427-0.305 0.711-0.88 0.853-1.727v0c0.288-1.721-0.236-4.653-1.569-8.796v0c-0.578-0.208-1.26-0.378-2.046-0.509v0l0.287-1.216 0.426 0.072c3.326 0.556 5.244-0.69 5.754-3.739v0c0.472-2.825-0.718-4.475-3.57-4.952v0c-0.955-0.16-1.841-0.148-2.659 0.036v0c-0.508 1.83-1.139 5.004-1.894 9.522-0.754 4.511-1.146 7.649-1.177 9.413v0c1.216 0.349 2.335 0.756 3.358 1.219v0l-0.298 1.037c-1.437-0.442-3.067-0.815-4.889-1.12-1.815-0.303-3.463-0.464-4.944-0.482v0l0.011-1.126c0.836-0.125 1.762-0.189 2.779-0.194v0c0.638-2.066 1.33-5.334 2.078-9.805 0.748-4.478 1.138-7.598 1.168-9.362v0c-1.036-0.549-1.924-0.886-2.662-1.009z" fill="#000000" data-fill-palette-color="primary"></path><path d="M191.536 22.274c-0.998 2.346-1.409 4.347-1.232 6.004 0.177 1.657 1.2 2.92 3.069 3.788 1.869 0.868 3.965 0.879 6.287 0.034v0l0.291 0.794c-2.765 1.404-5.56 1.954-8.387 1.648v0c-2.517-1.168-4.118-2.881-4.804-5.138-0.683-2.263-0.396-4.75 0.862-7.459 1.258-2.71 3.284-4.87 6.076-6.482 2.796-1.602 5.68-2.171 8.653-1.707v0c1.894 0.879 3.945 2.07 6.155 3.574v0l-0.441 0.828c-0.492-0.228-1.001-0.355-1.528-0.379v0c-1.036 0.943-2.005 2.181-2.906 3.716v0l-0.972-0.451c0.202-0.974 0.52-1.928 0.954-2.863v0c-0.759-0.958-1.811-1.75-3.157-2.374-1.352-0.628-2.639-0.782-3.862-0.464v0c-1.625 1.199-3.021 2.887-4.191 5.062v0c1.006 0.687 2.132 1.319 3.379 1.898v0c2.155 1.001 3.665 1.149 4.529 0.445v0l0.757 0.499c-0.592 0.672-1.062 1.381-1.409 2.129-0.35 0.754-0.688 1.718-1.013 2.891v0l-1.008-0.275c0.075-0.912 0.239-1.812 0.493-2.701v0c-0.991-0.589-1.997-1.121-3.019-1.595-1.028-0.477-2.22-0.951-3.576-1.422z" fill="#000000" data-fill-palette-color="primary"></path><path d="M221.966 42.189v0l1.451-1.861c1.812-2.324 3.21-4.19 4.195-5.599v0l-2.576-2.008-0.014-0.116c0.232-0.298 0.436-0.487 0.612-0.567v0c2.077 0.966 4.239 1.31 6.485 1.032v0c0.321 0.146 0.664 0.361 1.026 0.643v0l0.08 0.167c-1.758 1.608-4.194 4.407-7.306 8.399v0l-1.45 1.86c-2.36 3.028-3.927 5.199-4.699 6.513v0c0.529 0.673 1.018 1.42 1.467 2.241v0l-0.606 0.559c-1.043-1.031-2.127-1.985-3.254-2.863-1.132-0.883-2.399-1.726-3.801-2.531v0l0.436-0.693c1.013 0.32 1.89 0.659 2.629 1.018v0c1.506-1.508 3.282-3.572 5.325-6.194z" fill="#000000" data-fill-palette-color="primary"></path><path d="M258.635 63.776l0.06 0.373c-2.019 0.96-4.381 2.388-7.088 4.282-2.712 1.898-4.468 3.144-5.268 3.738v0c0.626 0.895 1.153 1.461 1.579 1.699 0.43 0.244 1.084 0.268 1.962 0.073v0l0.28 0.634c-1.198 0.528-2.348 1.178-3.451 1.95v0l-0.168-0.096c-0.507-0.869-1.155-1.866-1.942-2.992v0c-1.103 0.772-2.277 1.736-3.522 2.893v0c0.084 0.671 0.29 1.415 0.62 2.232v0l-0.804 0.361c-0.819-1.422-1.611-2.679-2.374-3.77-0.76-1.086-1.791-2.259-3.093-3.52v0l0.63-0.591c0.91 0.545 1.864 1.256 2.864 2.133v0c1.448-0.77 2.734-1.549 3.859-2.337v0l-5.931-8.474 0.398-0.492c3.71 0.413 6.949 0.627 9.717 0.643 2.769 0.015 5.768-0.215 8.999-0.69v0c0.926 0.819 1.817 1.47 2.673 1.951zM253.094 63.782l-0.178-0.253c-3.463 0.646-7.275 0.942-11.437 0.888v0c0.884 1.611 1.94 3.316 3.165 5.115v0z" fill="#000000" data-fill-palette-color="primary"></path><path d="M260.292 97.221v0l2.193-0.869c2.739-1.085 4.89-1.986 6.454-2.702v0l-1.203-3.036 0.046-0.107c0.351-0.139 0.623-0.199 0.815-0.179v0c1.301 1.885 2.99 3.277 5.068 4.175v0c0.203 0.289 0.389 0.647 0.559 1.075v0l-0.016 0.184c-2.33 0.495-5.848 1.675-10.554 3.54v0l-2.193 0.869c-3.569 1.414-6.019 2.493-7.351 3.234v0c0.115 0.848 0.158 1.74 0.129 2.675v0l-0.806 0.176c-0.377-1.417-0.828-2.789-1.354-4.118-0.529-1.334-1.193-2.704-1.994-4.108v0l0.726-0.376c0.712 0.789 1.295 1.526 1.751 2.209v0c2.063-0.537 4.639-1.417 7.73-2.642z" fill="#000000" data-fill-palette-color="primary"></path><path d="M1.405 140.938c0-4.853 3.934-8.788 8.787-8.788 4.853 0 8.788 3.934 8.788 8.788 0 4.853-3.934 8.788-8.788 8.788-4.853 0-8.788-3.934-8.787-8.788z" fill="#000000" data-fill-palette-color="primary"></path><path d="M261.02 140.938c0-4.853 3.934-8.788 8.788-8.788 4.853 0 8.788 3.934 8.787 8.788 0 4.853-3.934 8.788-8.787 8.788-4.853 0-8.788-3.934-8.788-8.788z" fill="#000000" data-fill-palette-color="primary"></path></g><g id="text-1"><path d="M10.396 185.662v0c0.3 0.935 0.868 1.77 1.703 2.505v0l3.431-1.275c0.001-0.671-0.06-1.467-0.182-2.387v0l0.708-0.119c0.127 0.529 0.229 0.915 0.307 1.157v0c0.481 1.497 1.319 2.725 2.513 3.683v0l-0.481 0.522c-0.326-0.184-0.655-0.345-0.988-0.483v0c-3.052 0.648-5.547 1.236-7.484 1.765v0l-0.22-0.687c0.748-0.435 1.327-0.909 1.739-1.424v0c-1.517-0.905-2.687-1.932-3.511-3.082v0c-0.676-2.106-0.539-3.971 0.411-5.596 0.958-1.621 2.572-2.795 4.841-3.523 2.269-0.729 4.631-0.708 7.085 0.062 2.455 0.77 4.347 2.149 5.679 4.138v0c0.51 1.589 0.922 3.433 1.235 5.533v0l-0.725 0.2c-0.132-0.412-0.333-0.78-0.604-1.104v0c-1.113-0.097-2.364 0.005-3.753 0.307v0l-0.261-0.814c0.684-0.407 1.419-0.737 2.203-0.989v0c0.145-0.963 0.037-2.006-0.323-3.131-0.363-1.131-0.968-1.969-1.813-2.513v0c-1.868-0.359-3.881-0.193-6.04 0.5-2.164 0.695-3.759 1.56-4.782 2.596-1.017 1.033-1.246 2.42-0.688 4.159z" fill="#000000" data-fill-palette-color="secondary"></path><path d="M27.594 220.764l0.718-0.52c1.146-0.83 2.652-2.357 4.518-4.581 1.867-2.234 3.618-4.477 5.252-6.728v0l-0.103-0.091-5.659 3.042c-2.338 1.244-4.359 2.482-6.061 3.714v0c-1.035 0.749-1.494 1.573-1.376 2.472v0l-0.555 0.236c-0.308-0.625-0.787-1.385-1.435-2.28-0.648-0.896-1.437-1.826-2.364-2.791v0l0.648-0.634c0.655 0.484 1.23 0.967 1.723 1.449v0l14.508-6.575c-0.526-1.078-0.892-1.894-1.098-2.448v0l0.78-0.451c0.761 1.484 1.552 2.794 2.374 3.929 0.822 1.135 1.524 1.97 2.107 2.506v0l-0.425 0.396c-0.49-0.408-0.883-0.505-1.178-0.291v0c-0.412 0.298-2.344 2.571-5.798 6.818v0l-1.645 2.119 0.204 0.158c0.478-0.346 4.099-1.688 10.861-4.023v0c0.317-0.23 0.358-0.641 0.124-1.234v0l0.509-0.28c0.327 0.721 0.91 1.66 1.748 2.817 0.834 1.151 1.829 2.309 2.985 3.473v0l-0.665 0.609c-0.486-0.402-1.084-0.941-1.793-1.614v0c-0.485 0.267-1.159 0.712-2.021 1.336-0.857 0.62-2.531 2.015-5.022 4.183-2.486 2.165-4.155 3.712-5.007 4.643v0c0.406 0.749 0.788 1.545 1.144 2.389v0l-0.753 0.418c-0.569-1.055-1.278-2.169-2.128-3.343-0.85-1.174-1.692-2.179-2.527-3.016v0l0.647-0.634c0.627 0.479 1.241 1.035 1.844 1.667v0c4.321-3.214 8.218-6.485 11.692-9.814v0l-0.06-0.084c-7 2.16-11.378 3.778-13.134 4.855v0c-0.41-0.297-0.975-0.579-1.695-0.846-0.714-0.272-1.338-0.426-1.873-0.463v0z" fill="#000000" data-fill-palette-color="secondary"></path><path d="M55.178 248.394c0.566 0.989 1.255 1.794 2.066 2.417 0.817 0.627 1.615 0.936 2.393 0.928 0.783-0.005 1.446-0.362 1.99-1.07v0c0.552-0.719 0.218-2.399-1.001-5.041v0c-0.474-0.996-0.815-2.024-1.023-3.084-0.204-1.066-0.09-1.879 0.341-2.44v0c0.736-0.959 1.987-1.54 3.753-1.742 1.762-0.197 3.308-0.058 4.64 0.418v0c1.34 1.029 2.448 2.095 3.323 3.201v0l-0.377 0.49c-1.339 0.176-2.562 0.89-3.671 2.143v0l-0.678-0.521c0.389-0.507 0.833-1.175 1.331-2.004v0c-0.416-0.778-0.986-1.445-1.711-2.001-0.725-0.556-1.448-0.86-2.17-0.913-0.722-0.052-1.313 0.222-1.773 0.821v0c-0.318 0.414-0.344 1.113-0.077 2.097 0.266 0.984 0.635 1.959 1.105 2.926 0.469 0.957 0.809 1.963 1.021 3.017 0.212 1.055 0.103 1.863-0.328 2.424v0c-0.836 1.09-2.146 1.803-3.928 2.14-1.787 0.343-3.428 0.287-4.923-0.168v0c-1.139-0.874-2.102-1.83-2.89-2.868v0c-0.385-0.096-0.841-0.117-1.367-0.062v0l-0.221-0.728c1.858-0.323 3.467-1.257 4.826-2.802v0l0.679 0.521c-0.485 0.632-0.928 1.266-1.33 1.901z" fill="#000000" data-fill-palette-color="secondary"></path><path d="M98.379 257.361v0c-0.593-0.656-1.227-1.121-1.902-1.396-0.674-0.274-1.146-0.418-1.415-0.43v0c-0.635 1.069-1.618 3.242-2.949 6.519-1.334 3.283-2.239 5.848-2.714 7.693v0c0.904 0.493 1.718 1.009 2.44 1.547v0l-0.417 0.754c-1.041-0.594-2.275-1.18-3.7-1.759-1.432-0.582-2.72-1.005-3.865-1.271v0l0.213-0.88c0.472 0.043 1.265 0.18 2.38 0.41v0c0.809-1.443 1.781-3.561 2.915-6.354v0l0.605-1.489c0.6-1.476 1.324-3.595 2.172-6.357v0c-0.195-0.176-0.611-0.393-1.248-0.651-0.636-0.259-1.373-0.388-2.211-0.387v0c-0.476 0.57-0.979 1.389-1.51 2.455v0l-0.83-0.337c0.703-1.731 0.966-3.188 0.787-4.373v0l0.37-0.472c1.544 0.872 3.785 1.905 6.725 3.099 2.94 1.194 5.354 2.038 7.244 2.532v0l-0.053 0.679c-0.769 0.377-1.362 0.807-1.781 1.289-0.421 0.489-0.843 1.199-1.266 2.132v0l-0.792-0.321c0.132-0.762 0.399-1.639 0.802-2.632z" fill="#000000" data-fill-palette-color="secondary"></path><path d="M123.719 279.984c-2.241-0.287-3.962-1.228-5.164-2.823-1.195-1.587-1.641-3.569-1.336-5.946 0.305-2.377 1.313-4.516 3.024-6.415 1.718-1.899 3.78-2.991 6.185-3.279v0c2.33 0.299 4.023 1.187 5.08 2.666 1.049 1.485 1.417 3.45 1.103 5.896-0.313 2.439-1.256 4.561-2.831 6.367-1.574 1.799-3.594 2.977-6.061 3.534zM125.242 263.478v0c-1.015-0.13-1.933 0.04-2.755 0.509v0c-1.129 1.462-1.847 3.391-2.154 5.789v0c-0.355 2.766 0.144 4.983 1.494 6.652v0c0.716 0.895 1.626 1.413 2.73 1.555 1.11 0.142 2.044-0.036 2.8-0.535v0c1.109-1.471 1.811-3.348 2.103-5.629 0.293-2.289 0.122-4.194-0.514-5.716-0.63-1.514-1.865-2.389-3.704-2.625z" fill="#000000" data-fill-palette-color="secondary"></path><path d="M152.957 262.894l-0.111-0.681 7.73-1.501c2.027-0.33 3.597-0.28 4.712 0.151 1.107 0.432 1.79 1.437 2.047 3.016v0c0.176 1.078-0.001 2.088-0.529 3.03-0.528 0.942-1.298 1.704-2.31 2.287v0l5.044 7.121c0.788 0.011 1.536 0.052 2.244 0.125v0l0.005 0.928c-0.968-0.002-2.045 0.093-3.231 0.287-1.179 0.192-2.099 0.401-2.758 0.627v0l-0.221-0.528c0.244-0.339 0.311-0.844 0.201-1.515v0c-0.224-1.376-1.374-3.457-3.45-6.243v0c-0.482-0.012-1.038 0.034-1.668 0.136v0l-0.098-0.986 0.335-0.054c2.664-0.434 3.798-1.868 3.401-4.302v0c-0.368-2.257-1.691-3.2-3.969-2.829v0c-0.766 0.125-1.434 0.362-2.002 0.713v0c0.086 1.51 0.423 4.068 1.011 7.674 0.588 3.606 1.095 6.077 1.522 7.413v0c1.008-0.046 1.958-0.027 2.848 0.058v0l0.036 0.86c-1.191 0.034-2.516 0.17-3.973 0.408-1.451 0.237-2.737 0.54-3.86 0.911v0l-0.276-0.863c0.597-0.306 1.281-0.592 2.052-0.857v0c-0.052-1.724-0.368-4.373-0.951-7.944-0.581-3.565-1.086-6.02-1.513-7.363v0c-0.929-0.148-1.685-0.174-2.268-0.079z" fill="#000000" data-fill-palette-color="secondary"></path><path d="M192.883 260.919c0.92 1.814 1.931 3.094 3.035 3.837 1.104 0.744 2.4 0.77 3.888 0.078 1.488-0.692 2.572-1.961 3.251-3.807v0l0.629 0.229c-0.563 2.405-1.665 4.391-3.307 5.958v0c-2.005 0.933-3.873 1.029-5.604 0.289-1.727-0.749-3.093-2.205-4.098-4.365-1.005-2.161-1.278-4.507-0.82-7.039 0.459-2.531 1.592-4.581 3.401-6.149v0c1.513-0.704 3.292-1.342 5.336-1.913v0l0.289 0.694c-0.392 0.182-0.733 0.428-1.021 0.737v0c0.042 1.117 0.299 2.345 0.771 3.686v0l-0.775 0.36c-0.489-0.628-0.908-1.316-1.255-2.063v0c-0.973-0.024-1.996 0.212-3.067 0.71-1.077 0.501-1.833 1.205-2.267 2.112v0c-0.107 1.61 0.201 3.33 0.923 5.16v0c0.938-0.262 1.903-0.624 2.893-1.084v0c1.719-0.799 2.588-1.643 2.607-2.53v0l0.688-0.207c0.106 0.701 0.3 1.353 0.58 1.957 0.278 0.598 0.691 1.299 1.24 2.105v0l-0.69 0.469c-0.52-0.516-0.983-1.08-1.39-1.694v0c-0.866 0.304-1.707 0.646-2.523 1.025-0.822 0.382-1.727 0.864-2.714 1.445z" fill="#000000" data-fill-palette-color="secondary"></path><path d="M224.964 242.055v0l-1.179-1.471c-1.469-1.832-2.658-3.26-3.567-4.283v0l-2.034 1.63-0.093-0.017c-0.185-0.23-0.293-0.421-0.326-0.571v0c1.13-1.434 1.794-3.049 1.991-4.845v0c0.171-0.225 0.399-0.452 0.683-0.68v0l0.15-0.028c0.922 1.655 2.647 4.058 5.173 7.209v0l1.179 1.47c1.912 2.384 3.308 3.999 4.187 4.843v0c0.617-0.284 1.287-0.525 2.007-0.724v0l0.326 0.57c-0.991 0.619-1.935 1.287-2.829 2.005-0.889 0.713-1.774 1.542-2.655 2.486v0l-0.461-0.476c0.437-0.729 0.861-1.347 1.274-1.853v0c-0.896-1.447-2.171-3.202-3.826-5.265z" fill="#000000" data-fill-palette-color="secondary"></path><path d="M241.996 205.967l0.268-0.154c1.287 1.234 3.02 2.594 5.199 4.078 2.179 1.485 3.604 2.443 4.274 2.875v0c0.487-0.715 0.76-1.269 0.82-1.66 0.055-0.386-0.112-0.878-0.503-1.477v0l0.393-0.393c0.73 0.746 1.537 1.421 2.423 2.025v0l-0.016 0.151c-0.505 0.62-1.067 1.384-1.686 2.292v0c0.885 0.603 1.937 1.207 3.153 1.812v0c0.481-0.254 0.978-0.618 1.491-1.091v0l0.495 0.499c-0.827 1.007-1.541 1.95-2.14 2.83-0.596 0.874-1.178 1.973-1.748 3.297v0l-0.628-0.303c0.159-0.831 0.421-1.741 0.788-2.73v0c-0.984-0.861-1.93-1.602-2.838-2.22v0l-4.647 6.819-0.467-0.156c-0.744-2.884-1.503-5.362-2.276-7.435-0.768-2.069-1.785-4.241-3.052-6.517v0c0.35-0.917 0.583-1.764 0.697-2.542zM243.566 210.103l-0.133 0.196c1.458 2.398 2.752 5.158 3.882 8.28v0c0.96-1.116 1.936-2.384 2.927-3.802v0z" fill="#000000" data-fill-palette-color="secondary"></path><path d="M264.533 183.849v0l-1.769-0.652c-2.204-0.812-3.959-1.422-5.265-1.829v0l-0.901 2.445-0.089 0.034c-0.277-0.102-0.468-0.209-0.574-0.321v0c0.228-1.812-0.036-3.538-0.793-5.178v0c0.03-0.282 0.109-0.593 0.234-0.935v0l0.114-0.101c1.644 0.942 4.36 2.111 8.15 3.507v0l1.769 0.652c2.868 1.056 4.896 1.719 6.085 1.989v0c0.383-0.562 0.831-1.114 1.346-1.656v0l0.573 0.321c-0.53 1.042-0.993 2.101-1.39 3.177-0.394 1.07-0.725 2.236-0.992 3.499v0l-0.64-0.17c-0.002-0.85 0.043-1.598 0.135-2.245v0c-1.514-0.777-3.512-1.623-5.993-2.537z" fill="#000000" data-fill-palette-color="secondary"></path></g></svg></g></svg></g></svg></g></svg></g><defs></defs></svg><rect width="280" height="280" fill="none" stroke="none" visibility="hidden"></rect></g></svg></g></svg>